<?xml version="1.0" encoding="UTF-8"?>
<svg version="1.1" xmlns="http://www.w3.org/2000/svg" width="1200" height="1200">
<path d="M0 0 C1.35808946 0.96611118 2.70001106 1.95702036 4 3 C4.33 1.35 4.66 -0.3 5 -2 C11.27 -2 17.54 -2 24 -2 C24.09064121 8.89263272 24.16391162 19.78501184 24.20724869 30.67793751 C24.22805622 35.7368511 24.25624807 40.79549159 24.30175781 45.85424805 C24.3454605 50.7431523 24.36918841 55.63179511 24.37950897 60.52087975 C24.38685673 62.37906696 24.40120442 64.23724109 24.42292023 66.09531593 C24.58279753 80.35171013 23.75958445 91.13060688 13.3515625 101.84375 C10.10331188 104.82221236 6.97191396 107.09406326 3 109 C2.21367188 109.37898437 1.42734375 109.75796875 0.6171875 110.1484375 C-11.72003007 115.34111713 -25.39791581 115.14194375 -38 111 C-42.12651771 109.20546581 -46.08469733 107.21580316 -50 105 C-49.44636539 96.97229811 -47.34312056 89.66145933 -45 82 C-44.34 82 -43.68 82 -43 82 C-42.278125 82.7425 -41.55625 83.485 -40.8125 84.25 C-34.73778823 90.18971818 -27.71164005 92.97543093 -19.1875 93.375 C-12.76008038 93.19890631 -6.70717355 91.72913845 -2.07421875 87.05859375 C1.39205353 82.56650342 3.14589197 79.06654627 3.0625 73.3125 C3.05347656 72.50425781 3.04445313 71.69601562 3.03515625 70.86328125 C3.02355469 70.24839844 3.01195312 69.63351562 3 69 C2.18208984 69.50660156 2.18208984 69.50660156 1.34765625 70.0234375 C-8.41089629 75.79516259 -16.75956437 76.91296855 -28 75 C-39.24727665 71.67576663 -47.72093273 63.72504179 -53.32421875 53.609375 C-57.65476374 43.70230365 -57.75741965 30.93821899 -54.25 20.75 C-52.56130049 16.86123424 -50.57613809 13.38118124 -48 10 C-47.40832031 9.19691406 -46.81664062 8.39382813 -46.20703125 7.56640625 C-43.88696874 4.86856365 -41.69093961 3.20292521 -38.6875 1.3125 C-37.78386719 0.73113281 -36.88023437 0.14976562 -35.94921875 -0.44921875 C-24.82419172 -6.2990674 -11.06302222 -5.69336255 0 0 Z M-31.375 23.5 C-35.05333826 29.15898194 -35.98976841 34.30630847 -35 41 C-32.75571258 46.54810966 -28.99227372 50.73582103 -24 54 C-18.31284643 56.34366631 -13.77233119 56.31418676 -8.07421875 54.046875 C-2.62393057 51.29607042 0.83314898 47.81628432 3 42 C4.46053254 35.63625107 3.93485956 30.88096379 1 25 C-2.8941429 20.40690837 -7.0470244 16.49148897 -13.19921875 15.7265625 C-21.22081806 15.39915028 -25.88822537 17.72444775 -31.375 23.5 Z " fill="#000000" transform="translate(902,438)"/>
<path d="M0 0 C1.16789062 0.55494141 1.16789062 0.55494141 2.359375 1.12109375 C4 3 4 3 4.11450195 4.83789062 C3.5740705 10.71096643 2.00736726 16.39426778 0.4375 22.0625 C0.20353516 22.92810547 -0.03042969 23.79371094 -0.27148438 24.68554688 C-0.8417334 26.79197695 -1.42001834 28.89622889 -2 31 C-2.74636719 30.24847656 -3.49273437 29.49695313 -4.26171875 28.72265625 C-14.11833007 18.92228807 -21.97025941 13.67430585 -36.14916992 13.68969727 C-46.23236739 13.91198677 -52.62538506 17.67697966 -59.80078125 24.58203125 C-66.44004316 31.88168156 -68.9215797 39.99118604 -69.03125 49.79296875 C-68.43302521 60.39650315 -64.81822791 68.11598272 -57.51171875 75.796875 C-49.43867024 82.87805596 -41.02791189 84.38144209 -30.60546875 84.2734375 C-21.5890656 83.58963661 -14.46724461 79.14983383 -8 73 C-6.50328642 71.06232832 -5.27691725 69.09414428 -4 67 C-3.34 67 -2.68 67 -2 67 C-0.98990734 70.72650762 0.00628554 74.45659459 1 78.1875 C1.28617187 79.24259766 1.57234375 80.29769531 1.8671875 81.38476562 C2.13789063 82.40634766 2.40859375 83.42792969 2.6875 84.48046875 C2.93886719 85.41785889 3.19023437 86.35524902 3.44921875 87.32104492 C4.00269851 90.01312535 4.27929983 92.26426403 4 95 C-8.64582245 105.95291396 -25.76060172 109.1436196 -42 108 C-57.4911399 105.79131714 -72.41806572 98.94959836 -82.23535156 86.42382812 C-92.30951823 72.71154777 -97.12913446 57.08685656 -94.71582031 39.98632812 C-91.89872397 24.26194586 -84.17269131 10.74479884 -71.125 1.25 C-49.25168939 -13.13245081 -22.24328306 -14.58257194 0 0 Z " fill="#000000" transform="translate(355,406)"/>
<path d="M0 0 C7.26 0 14.52 0 22 0 C22.33 15.84 22.66 31.68 23 48 C27.95 45.525 27.95 45.525 33 43 C42.26502904 41.14699419 49.42823051 41.70778455 58 46 C65.20075062 50.82902631 70.24496652 57.37886407 72.57687378 65.76028442 C73.48060329 70.54395646 73.23988629 75.42734611 73.1953125 80.27734375 C73.1924826 81.4438295 73.18965271 82.61031525 73.18673706 83.81214905 C73.17558388 87.52070576 73.15048786 91.22901685 73.125 94.9375 C73.11496393 97.45898088 73.10583918 99.98046555 73.09765625 102.50195312 C73.07736607 108.66813845 73.03820712 114.83379576 73 121 C65.41 121 57.82 121 50 121 C49.97421875 117.61621094 49.9484375 114.23242188 49.921875 110.74609375 C49.88342415 107.45621547 49.83827353 104.1664923 49.79248047 100.87670898 C49.76431589 98.59651132 49.743079 96.31621684 49.72900391 94.03588867 C49.70751252 90.75128782 49.66082828 87.46784545 49.609375 84.18359375 C49.60814636 83.16978134 49.60691772 82.15596893 49.60565186 81.11143494 C49.47792292 74.88993324 48.66728482 71.08104844 45 66 C41.0922599 63.20434404 36.6252631 63.33466753 32 64 C28.1973971 66.0050088 26.38209159 67.42686262 24 71 C23.16772012 74.25458174 22.86075351 77.34750043 22.79467773 80.69848633 C22.77473251 81.59904251 22.75478729 82.49959869 22.73423767 83.42744446 C22.71752518 84.3859581 22.70081268 85.34447174 22.68359375 86.33203125 C22.66281265 87.32377853 22.64203156 88.31552582 22.62062073 89.33732605 C22.55539948 92.49564899 22.49636798 95.65405288 22.4375 98.8125 C22.39428869 100.95769056 22.35067357 103.10287302 22.30664062 105.24804688 C22.19898872 110.49861625 22.09971122 115.74924981 22 121 C14.74 121 7.48 121 0 121 C0 81.07 0 41.14 0 0 Z " fill="#000000" transform="translate(600,391)"/>
<path d="M0 0 C5.97268159 5.52191317 10.45855264 11.22438128 13 19 C13.18949219 19.57878906 13.37898438 20.15757812 13.57421875 20.75390625 C15.69224998 31.92700679 14.53641529 43.36117304 8.71484375 53.1640625 C2.5479288 62.06228518 -5.70902436 68.90603346 -16.2890625 71.578125 C-29.67330299 73.66097511 -41.69218367 71.79101416 -52.8671875 63.8203125 C-61.93228263 56.08343643 -66.69816228 46.87288877 -67.9375 35.125 C-68.48501528 22.82593725 -64.77980105 12.04045118 -56.5625 2.875 C-40.8489034 -12.06039944 -17.08450961 -13.11649447 0 0 Z M-41.8125 19 C-46.19575819 25.01132552 -46.8279834 29.60948151 -46 37 C-44.36951866 42.31448783 -41.78734011 46.06231403 -37 49 C-31.2792547 52.01091858 -26.2812124 52.70456693 -20 51 C-14.43535229 48.11066369 -10.71243718 44.09869584 -7.6875 38.625 C-5.94429536 31.96912772 -6.76958829 27.01524939 -10 21 C-13.16089225 16.55766495 -15.78600935 13.73799688 -21 12 C-29.79471557 10.92228145 -35.83086851 12.16880346 -41.8125 19 Z " fill="#000000" transform="translate(497,442)"/>
<path d="M0 0 C7.27830934 5.28673216 11.86162865 11.59639272 13.54296875 20.5234375 C13.81169196 24.69060397 13.77591237 28.84521257 13.73828125 33.01953125 C13.73545135 34.20821304 13.73262146 35.39689484 13.72970581 36.62159729 C13.71855081 40.40148168 13.69345441 44.18112526 13.66796875 47.9609375 C13.65793292 50.53059553 13.64880812 53.10025728 13.640625 55.66992188 C13.61862672 61.95451924 13.58412876 68.2389376 13.54296875 74.5234375 C6.28296875 74.5234375 -0.97703125 74.5234375 -8.45703125 74.5234375 C-8.51310547 69.91568359 -8.51310547 69.91568359 -8.5703125 65.21484375 C-8.6166184 62.21615774 -8.66781906 59.21759208 -8.71948242 56.21899414 C-8.7525897 54.14647836 -8.78066513 52.07387549 -8.8034668 50.0012207 C-8.83727501 47.00955339 -8.88960293 44.01867401 -8.9453125 41.02734375 C-8.95170242 40.11134903 -8.95809235 39.19535431 -8.9646759 38.25160217 C-9.12494698 31.12445222 -9.79655713 24.120567 -15.08203125 18.9609375 C-19.39397389 17.12436934 -22.8404631 16.69757558 -27.45703125 17.5234375 C-31.54475504 19.60446052 -33.77487368 21.27997964 -35.45703125 25.5234375 C-35.78082974 27.90392963 -35.78082974 27.90392963 -35.77587891 30.47558594 C-35.7957486 31.45630066 -35.81561829 32.43701538 -35.83609009 33.44744873 C-35.8534169 35.0242038 -35.8534169 35.0242038 -35.87109375 36.6328125 C-35.8904599 37.71475891 -35.90982605 38.79670532 -35.92977905 39.91143799 C-35.98953362 43.36535776 -36.03594422 46.81931094 -36.08203125 50.2734375 C-36.12021478 52.61589991 -36.15926673 54.95834834 -36.19921875 57.30078125 C-36.29686545 63.0415937 -36.37646817 68.7822581 -36.45703125 74.5234375 C-44.04703125 74.5234375 -51.63703125 74.5234375 -59.45703125 74.5234375 C-59.45703125 49.4434375 -59.45703125 24.3634375 -59.45703125 -1.4765625 C-52.85703125 -1.4765625 -46.25703125 -1.4765625 -39.45703125 -1.4765625 C-39.12703125 0.5034375 -38.79703125 2.4834375 -38.45703125 4.5234375 C-37.87308594 3.92595703 -37.87308594 3.92595703 -37.27734375 3.31640625 C-27.05966756 -6.35978019 -11.96241672 -7.18886092 0 0 Z " fill="#000000" transform="translate(809.45703125,437.4765625)"/>
<path d="M0 0 C7.26 0 14.52 0 22 0 C22 8.25 22 16.5 22 25 C26.95 25 31.9 25 37 25 C37 30.94 37 36.88 37 43 C32.38 43 27.76 43 23 43 C23 62.14 23 81.28 23 101 C15.41 101 7.82 101 0 101 C0 81.86 0 62.72 0 43 C-4.62 43 -9.24 43 -14 43 C-14 37.06 -14 31.12 -14 25 C-9.38 25 -4.76 25 0 25 C0 16.75 0 8.5 0 0 Z " fill="#000000" transform="translate(540,411)"/>
<path d="M0 0 C7.26 0 14.52 0 22 0 C22 39.93 22 79.86 22 121 C14.74 121 7.48 121 0 121 C0 81.07 0 41.14 0 0 Z " fill="#000000" transform="translate(383,391)"/>
<path d="M0 0 C7.59 0 15.18 0 23 0 C23 25.08 23 50.16 23 76 C15.41 76 7.82 76 0 76 C0 50.92 0 25.84 0 0 Z " fill="#000000" transform="translate(699,436)"/>
<path d="M0 0 C3.50252011 2.04313673 5.77361702 4.09787233 7 8 C7.45778685 13.03565533 7.0454675 15.93937667 4 20 C1.72788708 22.69730365 0.18827608 23.4759478 -3.3125 23.875 C-7.67267541 24.22239609 -10.33224509 23.53249744 -14 21 C-17.39414392 17.24045781 -17.56044772 14.39850604 -17.4296875 9.48046875 C-16.73257257 5.45621441 -14.96066221 3.74918634 -12 1 C-8.29778834 -0.85110583 -4.04093083 -0.46454795 0 0 Z " fill="#000000" transform="translate(716,402)"/>
<path d="M0 0 C0.495 0.495 0.495 0.495 1 1 C0.68888747 6.39261714 -0.38364708 9.04982989 -4 13 C-6.5859375 14.94921875 -6.5859375 14.94921875 -9.375 16.6875 C-10.74785156 17.55955078 -10.74785156 17.55955078 -12.1484375 18.44921875 C-16.58872429 20.86400485 -20.676001 22.2849931 -25.75 22.25 C-26.50796875 22.25515625 -27.2659375 22.2603125 -28.046875 22.265625 C-30 22 -30 22 -32 20 C-31.900681 15.62996399 -30.65873595 12.74760315 -27.703125 9.51171875 C-20.6040255 3.21045383 -9.6543267 -2.97056206 0 0 Z " fill="#000000" transform="translate(97,650)"/>
<path d="M0 0 C6.39423191 2.69709308 13.55860945 6.93626606 17.2109375 13.015625 C18.26629917 15.66970286 17.80110992 17.30535753 17 20 C16 21 16 21 12.0625 21.3125 C2.52913182 21.16141651 -5.18332877 16.37085518 -12 10 C-14.70459857 6.55778363 -15.3733312 4.35553061 -15 0 C-9.98210051 -3.09963488 -5.40209482 -1.54659702 0 0 Z " fill="#000000" transform="translate(1117,651)"/>
<path d="M0 0 C3 2 3 2 3.5625 4.375 C3 7 3 7 0.25 9.25 C-7.48018993 13.41240996 -18.30989283 13.2120007 -26.82421875 11.3984375 C-29.73505898 10.33310226 -31.80128451 9.19871549 -34 7 C-34.25 4.125 -34.25 4.125 -33 1 C-23.91341549 -5.56475709 -9.63855128 -4.81927564 0 0 Z " fill="#000000" transform="translate(1135,637)"/>
<path d="M0 0 C1.765625 1.2890625 1.765625 1.2890625 2.890625 4.5390625 C2.849375 5.4465625 2.808125 6.3540625 2.765625 7.2890625 C-5.66781633 13.23080526 -14.19962973 13.04855596 -24.234375 12.2890625 C-28.26750813 11.42999956 -31.26620034 10.25723716 -34.234375 7.2890625 C-34.359375 4.6640625 -34.359375 4.6640625 -34.234375 2.2890625 C-23.77907124 -3.94390705 -11.37030751 -5.23335346 0 0 Z " fill="#000000" transform="translate(96.234375,636.7109375)"/>
<path d="M0 0 C-0.24286152 4.97866114 -1.78463292 7.70806958 -5.0625 11.26171875 C-11.37455725 16.92475398 -18.76021338 20.59693949 -27.25 21.25 C-30 21 -30 21 -33 19 C-32.90625999 14.40673954 -32.30069057 11.83298777 -29.125 8.4375 C-22.02423257 1.92478784 -9.30700369 -6.20466913 0 0 Z " fill="#000000" transform="translate(1135,613)"/>
<path d="M0 0 C8.39349643 3.11684536 15.5187528 7.85676681 20.59765625 15.31640625 C21.09765625 18.06640625 21.09765625 18.06640625 20.59765625 20.31640625 C16.73967125 22.88839625 14.8147343 22.47926766 10.3515625 21.9140625 C2.24537844 20.15484809 -4.84612088 15.40373866 -10.40234375 9.31640625 C-11.99314338 6.678498 -12.4423399 5.74636484 -12.15234375 2.62890625 C-11.90484375 1.86578125 -11.65734375 1.10265625 -11.40234375 0.31640625 C-7.62723519 -1.57114803 -3.93941766 -1.12097251 0 0 Z " fill="#000000" transform="translate(77.40234375,611.68359375)"/>
<path d="M0 0 C2.8100346 1.79363911 4.50940468 3.01880935 6 6 C6.36206054 10.41713859 6.51432609 12.94898583 4.5625 16.9375 C0.92180783 19.86781321 -2.38695772 20.28831514 -7 20 C-10.01085126 18.78284736 -11.43152262 17.91936514 -13.1328125 15.16796875 C-14.64279316 11.39301709 -14.07482403 7.85380983 -13 4 C-9.47226097 -0.3829485 -5.33396594 -1.09912025 0 0 Z " fill="#686868" transform="translate(1007,631)"/>
<path d="M0 0 C2.9375 1.4375 2.9375 1.4375 5 4 C6.29252053 8.30304973 6.50440653 11.75225754 4.8125 15.9375 C2.42703229 18.65199774 0.42651498 19.90205267 -3.21875 20.15234375 C-7.16980608 19.78024087 -9.40894144 19.47573006 -12.5625 16.9375 C-14.41894415 13.14389674 -14.85457596 10.14720686 -14 6 C-10.29458843 0.1948552 -6.74614381 -0.87880801 0 0 Z " fill="#686868" transform="translate(969,631)"/>
<path d="M0 0 C2.8100346 1.79363911 4.50940468 3.01880935 6 6 C6.36206054 10.41713859 6.51432609 12.94898583 4.5625 16.9375 C0.92180783 19.86781321 -2.38695772 20.28831514 -7 20 C-10.01085126 18.78284736 -11.43152262 17.91936514 -13.1328125 15.16796875 C-14.64279316 11.39301709 -14.07482403 7.85380983 -13 4 C-9.47226097 -0.3829485 -5.33396594 -1.09912025 0 0 Z " fill="#686868" transform="translate(815,631)"/>
<path d="M0 0 C2.9375 1.4375 2.9375 1.4375 5 4 C6.29252053 8.30304973 6.50440653 11.75225754 4.8125 15.9375 C2.42703229 18.65199774 0.42651498 19.90205267 -3.21875 20.15234375 C-7.16980608 19.78024087 -9.40894144 19.47573006 -12.5625 16.9375 C-14.41894415 13.14389674 -14.85457596 10.14720686 -14 6 C-10.29458843 0.1948552 -6.74614381 -0.87880801 0 0 Z " fill="#686868" transform="translate(777,631)"/>
<path d="M0 0 C2.8100346 1.79363911 4.50940468 3.01880935 6 6 C6.36206054 10.41713859 6.51432609 12.94898583 4.5625 16.9375 C0.92180783 19.86781321 -2.38695772 20.28831514 -7 20 C-10.01085126 18.78284736 -11.43152262 17.91936514 -13.1328125 15.16796875 C-14.64279316 11.39301709 -14.07482403 7.85380983 -13 4 C-9.47226097 -0.3829485 -5.33396594 -1.09912025 0 0 Z " fill="#686868" transform="translate(623,631)"/>
<path d="M0 0 C2.9375 1.4375 2.9375 1.4375 5 4 C6.29252053 8.30304973 6.50440653 11.75225754 4.8125 15.9375 C2.42703229 18.65199774 0.42651498 19.90205267 -3.21875 20.15234375 C-7.16980608 19.78024087 -9.40894144 19.47573006 -12.5625 16.9375 C-14.41894415 13.14389674 -14.85457596 10.14720686 -14 6 C-10.29458843 0.1948552 -6.74614381 -0.87880801 0 0 Z " fill="#686868" transform="translate(585,631)"/>
<path d="M0 0 C2.8100346 1.79363911 4.50940468 3.01880935 6 6 C6.36206054 10.41713859 6.51432609 12.94898583 4.5625 16.9375 C0.92180783 19.86781321 -2.38695772 20.28831514 -7 20 C-10.01085126 18.78284736 -11.43152262 17.91936514 -13.1328125 15.16796875 C-14.64279316 11.39301709 -14.07482403 7.85380983 -13 4 C-9.47226097 -0.3829485 -5.33396594 -1.09912025 0 0 Z " fill="#686868" transform="translate(431,631)"/>
<path d="M0 0 C2.9375 1.4375 2.9375 1.4375 5 4 C6.29252053 8.30304973 6.50440653 11.75225754 4.8125 15.9375 C2.42703229 18.65199774 0.42651498 19.90205267 -3.21875 20.15234375 C-7.16980608 19.78024087 -9.40894144 19.47573006 -12.5625 16.9375 C-14.41894415 13.14389674 -14.85457596 10.14720686 -14 6 C-10.29458843 0.1948552 -6.74614381 -0.87880801 0 0 Z " fill="#686868" transform="translate(393,631)"/>
<path d="M0 0 C2.8100346 1.79363911 4.50940468 3.01880935 6 6 C6.36206054 10.41713859 6.51432609 12.94898583 4.5625 16.9375 C0.92180783 19.86781321 -2.38695772 20.28831514 -7 20 C-10.01085126 18.78284736 -11.43152262 17.91936514 -13.1328125 15.16796875 C-14.64279316 11.39301709 -14.07482403 7.85380983 -13 4 C-9.47226097 -0.3829485 -5.33396594 -1.09912025 0 0 Z " fill="#686868" transform="translate(239,631)"/>
<path d="M0 0 C2.9375 1.4375 2.9375 1.4375 5 4 C6.29252053 8.30304973 6.50440653 11.75225754 4.8125 15.9375 C2.42703229 18.65199774 0.42651498 19.90205267 -3.21875 20.15234375 C-7.16980608 19.78024087 -9.40894144 19.47573006 -12.5625 16.9375 C-14.41894415 13.14389674 -14.85457596 10.14720686 -14 6 C-10.29458843 0.1948552 -6.74614381 -0.87880801 0 0 Z " fill="#686868" transform="translate(201,631)"/>
<path d="M0 0 C2.8100346 1.79363911 4.50940468 3.01880935 6 6 C6.3751455 10.97067782 6.15878799 14.05151502 3 18 C-0.21855225 20.33067577 -3.10490526 20.46741137 -7 20 C-12.70769231 16.87692308 -12.70769231 16.87692308 -14 13 C-14.38887761 8.80012182 -14.45908323 6.70392762 -12.125 3.125 C-8.51880254 -0.48119746 -4.93573703 -0.70915762 0 0 Z " fill="#696969" transform="translate(1084,631)"/>
<path d="M0 0 C3.0625 1.9375 3.0625 1.9375 5 5 C5.90731802 9.4798827 5.53516889 12.8831258 3.5625 17 C-0.10832472 19.86503393 -3.38358968 20.51914649 -8 20 C-11.01120406 18.74429042 -11.81844474 17.67240519 -14 15 C-15.04920479 12.24724765 -15.36003935 9.92603411 -15 7 C-11.31496208 0.01113498 -7.5633454 -1.10842131 0 0 Z " fill="#696969" transform="translate(931,631)"/>
<path d="M0 0 C2.8100346 1.79363911 4.50940468 3.01880935 6 6 C6.3751455 10.97067782 6.15878799 14.05151502 3 18 C-0.21855225 20.33067577 -3.10490526 20.46741137 -7 20 C-12.70769231 16.87692308 -12.70769231 16.87692308 -14 13 C-14.38887761 8.80012182 -14.45908323 6.70392762 -12.125 3.125 C-8.51880254 -0.48119746 -4.93573703 -0.70915762 0 0 Z " fill="#696969" transform="translate(892,631)"/>
<path d="M0 0 C3.0625 1.9375 3.0625 1.9375 5 5 C5.90731802 9.4798827 5.53516889 12.8831258 3.5625 17 C-0.10832472 19.86503393 -3.38358968 20.51914649 -8 20 C-11.01120406 18.74429042 -11.81844474 17.67240519 -14 15 C-15.04920479 12.24724765 -15.36003935 9.92603411 -15 7 C-11.31496208 0.01113498 -7.5633454 -1.10842131 0 0 Z " fill="#696969" transform="translate(739,631)"/>
<path d="M0 0 C2.8100346 1.79363911 4.50940468 3.01880935 6 6 C6.3751455 10.97067782 6.15878799 14.05151502 3 18 C-0.21855225 20.33067577 -3.10490526 20.46741137 -7 20 C-12.70769231 16.87692308 -12.70769231 16.87692308 -14 13 C-14.38887761 8.80012182 -14.45908323 6.70392762 -12.125 3.125 C-8.51880254 -0.48119746 -4.93573703 -0.70915762 0 0 Z " fill="#696969" transform="translate(700,631)"/>
<path d="M0 0 C3.0625 1.9375 3.0625 1.9375 5 5 C5.90731802 9.4798827 5.53516889 12.8831258 3.5625 17 C-0.10832472 19.86503393 -3.38358968 20.51914649 -8 20 C-11.01120406 18.74429042 -11.81844474 17.67240519 -14 15 C-15.04920479 12.24724765 -15.36003935 9.92603411 -15 7 C-11.31496208 0.01113498 -7.5633454 -1.10842131 0 0 Z " fill="#696969" transform="translate(547,631)"/>
<path d="M0 0 C2.8100346 1.79363911 4.50940468 3.01880935 6 6 C6.3751455 10.97067782 6.15878799 14.05151502 3 18 C-0.21855225 20.33067577 -3.10490526 20.46741137 -7 20 C-12.70769231 16.87692308 -12.70769231 16.87692308 -14 13 C-14.38887761 8.80012182 -14.45908323 6.70392762 -12.125 3.125 C-8.51880254 -0.48119746 -4.93573703 -0.70915762 0 0 Z " fill="#696969" transform="translate(508,631)"/>
<path d="M0 0 C3.0625 1.9375 3.0625 1.9375 5 5 C5.90731802 9.4798827 5.53516889 12.8831258 3.5625 17 C-0.10832472 19.86503393 -3.38358968 20.51914649 -8 20 C-11.01120406 18.74429042 -11.81844474 17.67240519 -14 15 C-15.04920479 12.24724765 -15.36003935 9.92603411 -15 7 C-11.31496208 0.01113498 -7.5633454 -1.10842131 0 0 Z " fill="#696969" transform="translate(355,631)"/>
<path d="M0 0 C2.8100346 1.79363911 4.50940468 3.01880935 6 6 C6.3751455 10.97067782 6.15878799 14.05151502 3 18 C-0.21855225 20.33067577 -3.10490526 20.46741137 -7 20 C-12.70769231 16.87692308 -12.70769231 16.87692308 -14 13 C-14.38887761 8.80012182 -14.45908323 6.70392762 -12.125 3.125 C-8.51880254 -0.48119746 -4.93573703 -0.70915762 0 0 Z " fill="#696969" transform="translate(316,631)"/>
<path d="M0 0 C3.0625 1.9375 3.0625 1.9375 5 5 C5.90731802 9.4798827 5.53516889 12.8831258 3.5625 17 C-0.10832472 19.86503393 -3.38358968 20.51914649 -8 20 C-11.01120406 18.74429042 -11.81844474 17.67240519 -14 15 C-15.04920479 12.24724765 -15.36003935 9.92603411 -15 7 C-11.31496208 0.01113498 -7.5633454 -1.10842131 0 0 Z " fill="#696969" transform="translate(163,631)"/>
<path d="M0 0 C2.8100346 1.79363911 4.50940468 3.01880935 6 6 C6.3751455 10.97067782 6.15878799 14.05151502 3 18 C-0.21855225 20.33067577 -3.10490526 20.46741137 -7 20 C-12.70769231 16.87692308 -12.70769231 16.87692308 -14 13 C-14.38887761 8.80012182 -14.45908323 6.70392762 -12.125 3.125 C-8.51880254 -0.48119746 -4.93573703 -0.70915762 0 0 Z " fill="#696969" transform="translate(124,631)"/>
<path d="M0 0 C3.70219508 2.54525912 4.7681855 4.18864925 6 8.5 C6 13.33715959 4.44496548 15.33273214 1.375 18.875 C-2.46219991 20.69262101 -5.98900496 20.17753983 -10 19 C-12.79750031 16.81658513 -13.75038246 15.32489312 -14.40625 11.84375 C-14.68388511 7.67922336 -14.32745938 5.51759709 -12.0625 1.9375 C-7.95188101 -0.66309569 -4.7405336 -1.05631455 0 0 Z " fill="#696969" transform="translate(1046,631)"/>
<path d="M0 0 C3.70219508 2.54525912 4.7681855 4.18864925 6 8.5 C6 13.33715959 4.44496548 15.33273214 1.375 18.875 C-2.46219991 20.69262101 -5.98900496 20.17753983 -10 19 C-12.79750031 16.81658513 -13.75038246 15.32489312 -14.40625 11.84375 C-14.68388511 7.67922336 -14.32745938 5.51759709 -12.0625 1.9375 C-7.95188101 -0.66309569 -4.7405336 -1.05631455 0 0 Z " fill="#696969" transform="translate(854,631)"/>
<path d="M0 0 C3.70219508 2.54525912 4.7681855 4.18864925 6 8.5 C6 13.33715959 4.44496548 15.33273214 1.375 18.875 C-2.46219991 20.69262101 -5.98900496 20.17753983 -10 19 C-12.79750031 16.81658513 -13.75038246 15.32489312 -14.40625 11.84375 C-14.68388511 7.67922336 -14.32745938 5.51759709 -12.0625 1.9375 C-7.95188101 -0.66309569 -4.7405336 -1.05631455 0 0 Z " fill="#696969" transform="translate(662,631)"/>
<path d="M0 0 C3.70219508 2.54525912 4.7681855 4.18864925 6 8.5 C6 13.33715959 4.44496548 15.33273214 1.375 18.875 C-2.46219991 20.69262101 -5.98900496 20.17753983 -10 19 C-12.79750031 16.81658513 -13.75038246 15.32489312 -14.40625 11.84375 C-14.68388511 7.67922336 -14.32745938 5.51759709 -12.0625 1.9375 C-7.95188101 -0.66309569 -4.7405336 -1.05631455 0 0 Z " fill="#696969" transform="translate(470,631)"/>
<path d="M0 0 C3.70219508 2.54525912 4.7681855 4.18864925 6 8.5 C6 13.33715959 4.44496548 15.33273214 1.375 18.875 C-2.46219991 20.69262101 -5.98900496 20.17753983 -10 19 C-12.79750031 16.81658513 -13.75038246 15.32489312 -14.40625 11.84375 C-14.68388511 7.67922336 -14.32745938 5.51759709 -12.0625 1.9375 C-7.95188101 -0.66309569 -4.7405336 -1.05631455 0 0 Z " fill="#696969" transform="translate(278,631)"/>
</svg>
